<svg width="24" height="24" viewBox="0 0 24 24"
     xmlns="http://www.w3.org/2000/svg" fill="currentColor">
  <path d="M12 15.5A3.5 3.5 0 1 0 12 8.5a3.5 3.5 0 0 0 0 7zm8.94-2.5a7.97 7.97 0 0 0 .06-1c0-.34-.02-.67-.06-1l2.03-1.58a.5.5 0 0 0 .12-.65l-1.92-3.32a.5.5 0 0 0-.61-.21l-2.39.96a7.994 7.994 0 0 0-1.73-1L16 2.54a.5.5 0 0 0-.5-.54h-4a.5.5 0 0 0-.5.54l-.3 2.41c-.6.2-1.17.48-1.73.83l-2.39-.96a.5.5 0 0 0-.61.21L2.9 8.32a.5.5 0 0 0 .12.65L5.06 10.5a8.056 8.056 0 0 0 0 2L3.02 14.08a.5.5 0 0 0-.12.65l1.92 3.32c.13.23.39.31.61.21l2.39-.96c.56.35 1.13.63 1.73.83l.3 2.41c.03.27.24.48.5.48h4c.26 0 .47-.21.5-.48l.3-2.41c.6-.2 1.17-.48 1.73-.83l2.39.96c.22.09.48.01.61-.21l1.92-3.32a.5.5 0 0 0-.12-.65l-2.03-1.58z"/>
</svg>
